# xmcd
#
# Track frame offsets:
# 150
# 12267
# 28637
# 51872
# 69199
# 90003
# 103883
# 127662
# 143325
# 161410
# 179767
# 195104
# 209072
# 225263
# 246408
# 264115
#
# Disc length: 3704 seconds
#
#
# Revision: 0
# Processed by: cddbd v1.5.2PL0 Copyright (c) Steve Scherf et al.
# Submitted via: FreeRIP 2.945 
#
DISCID=c10e7610
DTITLE=Rita Lee - Rita Lee (Perfil)
DYEAR=2007
DGENRE=Alt. Rock
TTITLE0=On The Rocks
TTITLE1=Amor e Sexo
TTITLE2=Lança Perfume
TTITLE3=Mania de Você
TTITLE4=Baila Comigo
TTITLE5=Banho de Espuma
TTITLE6=Caso Sério
TTITLE7=Chega Mais
TTITLE8=Saúde
TTITLE9=Nem Luxo, Nem Lixo
TTITLE10=Agora só falta você
TTITLE11=Jardins da Babilônia
TTITLE12=Doce Vampiro
TTITLE13=Ovelha Negra
TTITLE14=Bwana
TTITLE15=Desculpe o Auê
EXTD=
EXTT0=
EXTT1=
EXTT2=
EXTT3=
EXTT4=
EXTT5=
EXTT6=
EXTT7=
EXTT8=
EXTT9=
EXTT10=
EXTT11=
EXTT12=
EXTT13=
EXTT14=
EXTT15=
PLAYORDER=
